# xmcd
#
# Track frame offsets:
#	150
#	48783
#	55163
#	66074
#	87006
#	154291
#	173930
#
# Disc length: 2915 seconds
#
# Revision: 1
# Processed by: cddbd v1.5.1PL2 Copyright (c) Steve Scherf et al.
# Submitted via: EasyCDDAExtractor 9.0.0.1
#
DISCID=510b6107
DTITLE=Black Sabbath - Hammermsith Odeon London 08-09-90 Disc 2
DYEAR=1990
DGENRE=Hard Rock
TTITLE0=Drum Solo [Incl The Planets and Mars The Bringer Of War]
TTITLE1=The Sign Of The Southern Cross
TTITLE2=Guitar Intro
TTITLE3=Die Young
TTITLE4=Heaven And Hell [Feat Brian May]
TTITLE5=Paranoid [Feat Brian May]
TTITLE6=Black Sabbath [Feat Geezer Butler]
EXTD=
EXTT0=
EXTT1=
EXTT2=
EXTT3=
EXTT4=
EXTT5=
EXTT6=
PLAYORDER=
